<?xml version="1.0" encoding="utf-8"?>
<!-- Generator: Adobe Illustrator 24.3.0, SVG Export Plug-In . SVG Version: 6.00 Build 0)  -->
<svg version="1.1" id="Layer_1" xmlns="http://www.w3.org/2000/svg" xmlns:xlink="http://www.w3.org/1999/xlink" x="0px" y="0px"
	 viewBox="0 0 24 24" style="enable-background:new 0 0 24 24;" xml:space="preserve">
<style type="text/css">
	.st0{fill:#050505;}
</style>
<path class="st0" d="M23.9,7.1c-0.2-4.4-2.6-6.8-7-7C15.7,0,15.3,0,12,0S8.3,0,7.1,0.1c-4.4,0.2-6.8,2.6-7,7C0,8.3,0,8.7,0,12
	c0,3.3,0,3.7,0.1,4.9c0.2,4.4,2.6,6.8,7,7C8.3,24,8.7,24,12,24s3.7,0,4.9-0.1c4.4-0.2,6.8-2.6,7-7C24,15.7,24,15.3,24,12
	C24,8.7,24,8.3,23.9,7.1z M21.2,15.8c-0.2,3.4-2,5.3-5.4,5.4c-0.9,0.1-1.2,0.1-3.8,0.1s-2.9,0-3.8-0.1c-3.4-0.2-5.3-2-5.4-5.4
	c-0.1-0.9-0.1-1.2-0.1-3.8c0-2.5,0-2.9,0.1-3.8c0.2-3.4,2-5.3,5.4-5.4C9.1,2.7,9.5,2.7,12,2.7s2.9,0,3.8,0.1c3.4,0.1,5.3,2,5.4,5.4
	c0.1,0.9,0.1,1.2,0.1,3.8C21.3,14.6,21.3,14.9,21.2,15.8z M19.6,8.3c-0.1-2.5-1.2-3.7-3.8-3.8c-1-0.1-1.3-0.1-3.8-0.1
	s-2.8,0-3.7,0.1C5.8,4.6,4.6,5.8,4.5,8.3C4.4,9.2,4.4,9.5,4.4,12c0,2.5,0,2.7,0.1,3.7c0.1,2.5,1.2,3.7,3.8,3.8
	c0.9,0.1,1.2,0.1,3.7,0.1c2.5,0,2.8,0,3.8-0.1c2.5-0.1,3.7-1.3,3.8-3.8c0.1-0.9,0.1-1.2,0.1-3.7C19.7,9.5,19.7,9.3,19.6,8.3z
	 M12,16.8c-2.6,0-4.8-2.2-4.8-4.8S9.4,7.2,12,7.2s4.8,2.2,4.8,4.8S14.6,16.8,12,16.8z M17,8.1c-0.6,0-1.1-0.5-1.1-1.1
	C15.9,6.4,16.3,6,17,6C17.6,6,18,6.4,18,7C18,7.7,17.6,8.1,17,8.1z M15.1,12c0,1.7-1.4,3.1-3.1,3.1S8.9,13.7,8.9,12
	c0-1.7,1.4-3.1,3.1-3.1S15.1,10.3,15.1,12z"/>
</svg>
