<?xml version="1.0" encoding="utf-8"?>
<!-- Generator: Adobe Illustrator 24.3.0, SVG Export Plug-In . SVG Version: 6.00 Build 0)  -->
<svg version="1.1" id="Layer_1" xmlns="http://www.w3.org/2000/svg" xmlns:xlink="http://www.w3.org/1999/xlink" x="0px" y="0px"
	 viewBox="0 0 24 24" style="enable-background:new 0 0 24 24;" xml:space="preserve">
<style type="text/css">
	.st0{fill:#050505;}
</style>
<path class="st0" d="M19.8,5.1C19.6,5,19.5,5,19.3,4.9c-0.4-0.3-0.9-0.6-1.2-1c-0.9-1-1.2-2.1-1.4-2.8l0,0c-0.1-0.6-0.1-1-0.1-1
	h-4.1V16c0,0.2,0,0.4,0,0.6c0,0,0,0,0,0.1l0,0l0,0c-0.1,1.2-0.7,2.2-1.8,2.8C10.2,19.8,9.6,20,9,19.9c-1.9,0-3.5-1.6-3.5-3.5
	s1.6-3.5,3.5-3.5c0.4,0,0.7,0.1,1.1,0.2V8.9C8,8.6,5.8,9.3,4.2,10.6C3.6,11.2,3,12,2.5,12.8c-0.2,0.3-0.8,1.5-0.9,3.5
	c0,1.1,0.3,2.3,0.4,2.7l0,0c0.1,0.3,0.5,1.2,1.1,2c0.5,0.6,1.1,1.2,1.8,1.7l0,0l0,0C7,24.1,9.2,24,9.2,24c0.4,0,1.7,0,3.1-0.7
	c1.6-0.8,2.5-1.9,2.5-1.9c0.6-0.7,1.1-1.5,1.4-2.3c0.4-1,0.5-2.2,0.5-2.6V8l0.7,0.5c0,0,1,0.6,2.5,1c1.1,0.3,2.5,0.3,2.5,0.3v-4
	C21.9,5.8,20.9,5.7,19.8,5.1z"/>
</svg>
