<?xml version="1.0" encoding="utf-8"?>
<!-- Generator: Adobe Illustrator 24.3.0, SVG Export Plug-In . SVG Version: 6.00 Build 0)  -->
<svg version="1.1" id="Layer_1" xmlns="http://www.w3.org/2000/svg" xmlns:xlink="http://www.w3.org/1999/xlink" x="0px" y="0px"
	 viewBox="0 0 1220.3 217.1" style="enable-background:new 0 0 1220.3 217.1;" xml:space="preserve">
<style type="text/css">
	.st0{fill:#FFD702;}
</style>
<g>
	<path class="st0" d="M114.1,0l26.9,82.9h87.2l-70.5,51.2l26.9,82.9l-70.5-51.2l-70.5,51.2l26.9-82.9L0,82.9h87.2L114.1,0z"/>
	<path class="st0" d="M362.1,0l26.9,82.9h87.2l-70.5,51.2l26.9,82.9l-70.5-51.2l-70.5,51.2l26.9-82.9L248,82.9h87.2L362.1,0z"/>
	<path class="st0" d="M610.1,0l26.9,82.9h87.2l-70.5,51.2l26.9,82.9l-70.5-51.2l-70.5,51.2l26.9-82.9L496,82.9h87.2L610.1,0z"/>
	<path class="st0" d="M858.1,0l26.9,82.9h87.2l-70.5,51.2l26.9,82.9l-70.5-51.2l-70.5,51.2l26.9-82.9L744,82.9h87.2L858.1,0z"/>
	<path class="st0" d="M1106.1,0l26.9,82.9h87.2l-70.5,51.2l26.9,82.9l-70.5-51.2l-70.5,51.2l26.9-82.9L992,82.9h87.2L1106.1,0z"/>
</g>
</svg>
