<?xml version="1.0" encoding="utf-8"?>
<!-- Generator: Adobe Illustrator 24.3.0, SVG Export Plug-In . SVG Version: 6.00 Build 0)  -->
<svg version="1.1" id="Layer_1" xmlns="http://www.w3.org/2000/svg" xmlns:xlink="http://www.w3.org/1999/xlink" x="0px" y="0px"
	 viewBox="0 0 476 70" style="enable-background:new 0 0 476 70;" xml:space="preserve">
<style type="text/css">
	.st0{display:none;fill:#F5F5F5;}
	.st1{display:none;}
	.st2{display:inline;fill:#3251FF;}
	.st3{display:inline;fill:#F9F9F9;}
	.st4{fill:#3251FF;}
</style>
<rect id="Rectangle_43" y="0" class="st0" width="476" height="70"/>
<g class="st1">
	<path class="st2" d="M71,27.3c2.9,2.9,4.3,6.9,4.3,12v22.3h-9.6v-21c0-3-0.8-5.3-2.3-6.8c-1.5-1.6-3.6-2.4-6.2-2.4
		c-2.6,0-4.7,0.8-6.2,2.4s-2.3,3.9-2.3,6.8v21h-9.6v-21c0-3-0.8-5.3-2.3-6.8c-1.5-1.6-3.6-2.4-6.2-2.4c-2.7,0-4.8,0.8-6.3,2.4
		S22,37.7,22,40.6v21h-9.6v-38H22v4.6c1.2-1.6,2.8-2.9,4.8-3.8c1.9-0.9,4.1-1.4,6.4-1.4c3,0,5.6,0.6,8,1.9c2.3,1.3,4.1,3.1,5.4,5.4
		c1.2-2.2,3-4,5.4-5.3s4.9-2,7.7-2C64.4,23,68.1,24.4,71,27.3z"/>
	<path class="st2" d="M84.3,32.3c1.6-3,3.8-5.2,6.7-6.9c2.8-1.6,6.1-2.4,9.8-2.4c4.7,0,8.6,1.2,11.7,3.5c3.1,2.4,5.2,5.7,6.2,9.9
		h-10.4c-0.5-1.6-1.5-2.9-2.8-3.9c-1.3-0.9-2.9-1.4-4.8-1.4c-2.7,0-4.9,1-6.5,3s-2.4,4.8-2.4,8.5c0,3.6,0.8,6.4,2.4,8.4s3.8,3,6.5,3
		c3.9,0,6.4-1.7,7.6-5.2h10.4c-1.1,4.1-3.1,7.4-6.3,9.8c-3.1,2.4-7,3.6-11.7,3.6c-3.7,0-6.9-0.8-9.8-2.4c-2.8-1.6-5.1-3.9-6.7-6.9
		s-2.4-6.4-2.4-10.3C81.9,38.7,82.7,35.2,84.3,32.3z"/>
	<path class="st2" d="M134.6,53.7h17v7.9h-27.9v-7.8l16.6-22.4h-16.6v-7.9h27.6v7.8L134.6,53.7z"/>
	<path class="st2" d="M158.8,32.2c1.5-3,3.6-5.3,6.3-6.9c2.6-1.6,5.6-2.4,8.8-2.4c2.8,0,5.3,0.6,7.5,1.7c2.1,1.1,3.8,2.6,5.1,4.3
		v-5.4h9.7v38.1h-9.7V56c-1.2,1.8-2.9,3.3-5.1,4.4c-2.2,1.2-4.7,1.8-7.5,1.8c-3.2,0-6.1-0.8-8.8-2.5c-2.6-1.6-4.7-4-6.3-7
		c-1.5-3-2.3-6.4-2.3-10.3C156.5,38.6,157.3,35.2,158.8,32.2z M185.1,36.6c-0.9-1.7-2.2-3-3.7-3.8c-1.6-0.9-3.2-1.3-5-1.3
		s-3.4,0.4-4.9,1.3c-1.5,0.9-2.7,2.1-3.7,3.8c-0.9,1.7-1.4,3.7-1.4,5.9c0,2.3,0.5,4.3,1.4,6s2.2,3,3.7,4c1.5,0.9,3.2,1.4,4.9,1.4
		c1.8,0,3.5-0.4,5-1.3c1.6-0.9,2.8-2.2,3.7-3.8c0.9-1.7,1.4-3.7,1.4-6C186.4,40.3,186,38.3,185.1,36.6z"/>
	<path class="st2" d="M220,24.7c2-1.1,4.3-1.7,6.8-1.7v10.1h-2.5c-3,0-5.3,0.7-6.8,2.1c-1.5,1.4-2.3,3.9-2.3,7.4v19h-9.6v-38h9.6
		v5.9C216.4,27.5,218,25.9,220,24.7z"/>
	<path class="st2" d="M255.8,61.6l-12.9-16.2v16.2h-9.6V10.8h9.6v28.9l12.8-16.1h12.5l-16.8,19.1l16.9,19h-12.5L255.8,61.6
		L255.8,61.6z"/>
	<path class="st2" d="M280.4,59.8c-2.9-1.6-5.2-3.9-6.9-6.9c-1.7-3-2.5-6.4-2.5-10.3s0.9-7.3,2.6-10.3s4.1-5.3,7-6.9
		c3-1.6,6.3-2.4,10-2.4s7,0.8,10,2.4s5.3,3.9,7,6.9s2.6,6.4,2.6,10.3s-0.9,7.3-2.6,10.3c-1.8,3-4.1,5.3-7.1,6.9
		c-3,1.6-6.4,2.4-10.1,2.4C286.7,62.2,283.4,61.4,280.4,59.8z M295.2,52.6c1.5-0.8,2.8-2.1,3.7-3.8c0.9-1.7,1.4-3.8,1.4-6.2
		c0-3.6-1-6.4-2.9-8.3c-1.9-1.9-4.2-2.9-7-2.9c-2.7,0-5,1-6.9,2.9c-1.9,1.9-2.8,4.7-2.8,8.3s0.9,6.4,2.7,8.3
		c1.8,1.9,4.1,2.9,6.8,2.9C292.1,53.9,293.7,53.4,295.2,52.6z"/>
	<path class="st2" d="M370,23.6l-11.1,38.1h-10.4L341.6,35l-6.9,26.6h-10.4l-11.3-38h9.8l6.7,29l7.3-29H347l7.1,28.9l6.7-28.9H370z"
		/>
	<path class="st2" d="M381.4,60.6c-2.5-1.1-4.4-2.6-5.9-4.6c-1.4-1.9-2.2-4.1-2.4-6.4h9.7c0.2,1.5,0.9,2.7,2.2,3.6
		c1.3,1,2.8,1.4,4.7,1.4c1.8,0,3.3-0.4,4.3-1.1c1-0.7,1.5-1.7,1.5-2.8c0-1.2-0.6-2.2-1.9-2.8s-3.3-1.3-6-2c-2.8-0.7-5.2-1.4-7-2.1
		c-1.8-0.7-3.4-1.9-4.7-3.4c-1.3-1.5-2-3.5-2-6.1c0-2.1,0.6-4,1.8-5.8c1.2-1.7,3-3.1,5.2-4.1c2.3-1,4.9-1.5,8-1.5
		c4.5,0,8.2,1.1,10.9,3.4c2.7,2.3,4.2,5.3,4.5,9.2h-9.2c-0.1-1.5-0.8-2.7-1.9-3.6s-2.6-1.3-4.5-1.3c-1.7,0-3.1,0.3-4,1
		c-0.9,0.6-1.4,1.5-1.4,2.7c0,1.3,0.6,2.3,1.9,2.9c1.3,0.7,3.3,1.3,6,2s5,1.4,6.8,2.1c1.8,0.7,3.3,1.9,4.6,3.4c1.3,1.5,2,3.6,2,6.1
		c0,2.2-0.6,4.2-1.8,5.9c-1.2,1.7-3,3.1-5.2,4.1c-2.3,1-4.9,1.5-7.9,1.5C386.7,62.2,383.9,61.7,381.4,60.6z"/>
	<path class="st2" d="M435.2,61.6l-12.9-16.2v16.2h-9.6V10.8h9.6v28.9l12.8-16.1h12.5l-16.8,19.1l16.9,19h-12.5V61.6z"/>
	<path class="st2" d="M453.4,17.4c-1.1-1.1-1.7-2.4-1.7-4s0.6-2.9,1.7-4s2.5-1.6,4.2-1.6s3.1,0.5,4.2,1.6s1.7,2.4,1.7,4
		s-0.6,2.9-1.7,4s-2.5,1.6-4.2,1.6C456,19,454.6,18.5,453.4,17.4z M462.4,23.6v38.1h-9.6V23.6H462.4z"/>
</g>
<g class="st1">
	<path class="st3" d="M12.4,55.5V21.9h17.8l0.4,12.4h1c0-3.4,0.5-6.1,1.4-8.1c0.9-1.9,2.2-3.3,3.9-4c1.7-0.8,3.7-1.1,5.9-1.1
		c3.6,0,6.3,1.1,8,3.2s2.6,5.5,2.6,10.1h1c0-3.4,0.5-6.1,1.4-8.1c0.9-1.9,2.2-3.3,3.9-4c1.7-0.8,3.7-1.1,5.9-1.1c3.6,0,6.3,1,8,3
		s2.6,5.1,2.6,9.2v22.1H58.1V39.9c0-1.4-0.2-2.4-0.6-2.9c-0.4-0.5-1-0.7-1.7-0.7c-0.9,0-1.5,0.3-1.8,0.9c-0.3,0.6-0.5,1.5-0.5,2.7
		v15.6H35.2V39.9c0-1.4-0.2-2.4-0.6-2.9c-0.4-0.5-1-0.7-1.7-0.7c-0.9,0-1.5,0.3-1.8,0.9c-0.3,0.6-0.5,1.5-0.5,2.7v15.6H12.4z"/>
	<path class="st3" d="M98,56.3c-3.9,0-7.3-0.7-10.3-2.1c-3-1.4-5.3-3.4-7-6s-2.5-5.8-2.5-9.6c0-3.8,0.8-6.9,2.5-9.5s4.1-4.6,7.1-5.9
		c3.1-1.3,6.6-2,10.7-2c2.8,0,5.4,0.3,7.8,1s4.2,1.5,5.6,2.4v12.3l-0.7,0.4c-1.2-0.8-2.6-1.4-4.2-1.7c-1.6-0.4-3.2-0.5-4.7-0.5
		c-2.3,0-4,0.3-5.2,1s-1.7,1.6-1.7,2.7c0,1.3,0.6,2.2,1.9,2.9c1.2,0.6,2.9,1,5,1c1.7,0,3.3-0.2,4.8-0.6c1.5-0.4,2.8-0.9,4-1.6
		l0.8,0.4V53c-1.4,1-3.4,1.9-6,2.6C103.3,56,100.7,56.3,98,56.3z"/>
	<path class="st3" d="M148.8,55.5l-34.6-0.1v-13c2.1-1.4,4.3-2.7,6.4-3.9s3.9-2.1,5.3-2.7l-0.2-0.5c-1.9,0.2-3.6,0.3-4.9,0.4
		c-1.3,0.1-2.5,0.1-3.5,0.1s-2.1,0-3.1,0v-14l34.6,0.1V35c-1.8,1.2-3.8,2.3-5.9,3.5c-2.1,1.2-4,2.2-5.7,2.9l0.1,0.5
		c1.9-0.2,3.6-0.3,4.9-0.4c1.3-0.1,2.5-0.1,3.6-0.1c1,0,2.1,0,3.1,0v14.1H148.8z"/>
	<path class="st3" d="M161,56.3c-3.1,0-5.6-0.9-7.5-2.6c-1.9-1.7-2.8-3.9-2.8-6.7c0-2.9,0.9-5.1,2.8-6.8c1.9-1.7,4.4-2.5,7.6-2.5
		c3.2,0,5.6,0.7,7.4,2.2c1.7,1.4,2.9,3.4,3.4,5.9h0.8v-3.6c0-2-0.7-3.5-2.2-4.7c-1.5-1.1-3.9-1.7-7.3-1.7c-2.1,0-4.1,0.3-6.1,0.8
		c-2,0.6-3.7,1.2-5.1,2.1l-0.8-0.4v-14c1.5-0.6,3.2-1.1,5.1-1.6c1.9-0.5,4-0.8,6.1-1.1c2.1-0.3,4.1-0.4,6.1-0.4
		c7.3,0,12.9,1.3,16.7,3.9s5.7,6.8,5.7,12.7v17.8h-17.8l-0.4-7.3H172c-0.5,2.7-1.8,4.8-3.7,6.1C166.2,55.6,163.8,56.3,161,56.3z
		 M168.2,48.9c1.4,0,2.1-0.6,2.1-1.9c0-0.6-0.2-1-0.5-1.4c-0.4-0.4-0.9-0.6-1.6-0.6c-0.6,0-1.2,0.2-1.5,0.5
		c-0.4,0.3-0.6,0.8-0.6,1.5c0,0.6,0.2,1,0.6,1.4C167,48.7,167.5,48.9,168.2,48.9z"/>
	<path class="st3" d="M193.1,55.5V21.9h17.1l1.1,12.7h1.2c0.1-3.8,0.6-6.7,1.4-8.7c0.8-2,2-3.3,3.5-4c1.6-0.7,3.6-0.9,6-0.6V39
		l-0.9,0.5c-0.6-0.3-1.3-0.5-2.1-0.6s-1.5-0.2-2.1-0.2c-2.1,0-3.8,0.6-5.1,1.7c-1.3,1.2-2,3-2,5.5v9.6H193.1z"/>
	<path class="st3" d="M225.6,55.5v-41h18.3v19.6h1.1l3-12.2h19.6v2l-7.7,11.6l7.7,18.5v1.5h-20l-2.7-11.4h-1v11.4H225.6z"/>
	<path class="st3" d="M284.6,56.3c-4,0-7.5-0.7-10.6-2s-5.5-3.3-7.2-5.9c-1.7-2.6-2.6-5.8-2.6-9.6c0-3.4,0.8-6.5,2.3-9.1
		s3.8-4.7,6.9-6.2c3-1.5,6.8-2.2,11.2-2.2c4,0,7.5,0.7,10.6,2s5.5,3.3,7.2,5.9s2.6,5.8,2.6,9.6c0,3.4-0.8,6.5-2.3,9.2
		s-3.8,4.7-6.9,6.2C292.7,55.5,289,56.3,284.6,56.3z M284.6,41.7c0.9,0,1.7-0.3,2.2-0.8c0.6-0.5,0.9-1.3,0.9-2.2s-0.3-1.6-0.9-2.2
		c-0.6-0.6-1.3-0.8-2.2-0.8c-1,0-1.8,0.3-2.3,0.8c-0.5,0.6-0.8,1.3-0.8,2.2s0.3,1.6,0.8,2.1C282.8,41.4,283.6,41.7,284.6,41.7z"/>
	<path class="st3" d="M309.4,55.5l-5.3-31.9v-1.7H321l0.7,8.6c0.2,2.7,0.3,5,0.4,6.8s0.1,3.2,0.1,4.4h1.2c0-0.8,0.1-2,0.3-3.4
		c0.2-1.4,0.4-3.1,0.7-4.9c0.3-1.8,0.5-3.6,0.9-5.5l1.1-5.9h15.7l1.1,5.9c0.3,1.8,0.6,3.6,0.8,5.4c0.2,1.8,0.4,3.4,0.6,4.9
		c0.2,1.4,0.3,2.6,0.3,3.5h1.3c0-1.2,0-2.7,0.1-4.5s0.2-4,0.3-6.6l0.8-8.6h16.9v1.7L359,55.5h-22.8l-1-8.7c-0.1-1.7-0.2-3-0.2-4.1
		s-0.1-1.9-0.2-2.5h-1.3c0,0.6-0.1,1.4-0.1,2.5s-0.1,2.4-0.2,4.1l-1,8.7H309.4z"/>
	<path class="st3" d="M380.1,56.3c-3.4,0-6.4-0.3-9.1-0.9c-2.7-0.6-4.8-1.4-6.3-2.3V40.9l0.9-0.5c1.8,0.9,3.8,1.4,5.8,1.7
		s4,0.4,6,0.4c0.7,0,1.3,0,2-0.1s1.1-0.1,1.4-0.3v-1.8c-0.2,0-0.5,0.1-1,0.1c-0.4,0-0.9,0-1.5,0c-4.6,0-8.1-0.7-10.6-2
		S364,34.9,364,32c0-2.5,0.8-4.6,2.4-6.2s3.8-2.8,6.5-3.6c2.8-0.8,5.9-1.2,9.4-1.2c1.9,0,3.8,0.1,5.9,0.3c2.1,0.2,4.1,0.5,5.9,0.9
		c1.9,0.4,3.4,0.9,4.5,1.5V37l-0.7,0.4c-0.9-0.6-2.1-1-3.4-1.3c-1.4-0.3-2.8-0.6-4.2-0.8c-1.4-0.2-2.6-0.3-3.5-0.3
		c-1.1,0-2,0-2.6,0.1s-1.1,0.1-1.5,0.3v1.8c0.7-0.1,1.2-0.1,1.5-0.1c0.4,0,0.8,0,1.2,0c4.6,0.1,8.1,0.8,10.4,2.2
		c2.4,1.4,3.5,3.6,3.5,6.7c0,3.6-1.7,6.2-5.1,7.9C390.8,55.5,386.1,56.3,380.1,56.3z"/>
	<path class="st3" d="M400.8,55.5v-41h18.3v19.6h1.1l3-12.2h19.6v2L435,35.5l7.7,18.5v1.5h-20L420,44.1h-1v11.4H400.8z"/>
	<path class="st3" d="M453,23c-2.8,0-5-0.4-6.8-1.2c-1.8-0.8-2.6-2-2.6-3.4s0.8-2.5,2.5-3.4c1.6-0.9,4-1.3,7-1.3
		c2.8,0,5.1,0.4,6.8,1.2c1.7,0.8,2.6,1.9,2.6,3.4c0,1.4-0.8,2.5-2.4,3.4C458.3,22.6,456,23,453,23z M443.8,55.5V22.3
		c1.9,1.7,4.9,2.5,9.2,2.5c2.1,0,3.9-0.2,5.5-0.7s2.8-1.1,3.6-1.8v33.2H443.8z"/>
</g>
<path class="st4" d="M200.5,55V22.2h16.7l1.1,12.4h1.2c0.1-3.7,0.6-6.5,1.3-8.5c0.8-1.9,1.9-3.2,3.4-3.9c1.5-0.6,3.5-0.8,5.8-0.6
	v17.2l-0.9,0.5c-0.6-0.3-1.2-0.5-2-0.6c-0.8-0.1-1.4-0.2-2.1-0.2c-2,0-3.7,0.6-5,1.7c-1.3,1.1-1.9,2.9-1.9,5.4V55H200.5z M232.2,55
	V15H250v19.1h1l2.9-11.9H273v2l-7.5,11.3l7.5,18V55h-19.5l-2.6-11.1H250V55H232.2z M289.7,55.8c-3.9,0-7.3-0.7-10.3-2
	c-3-1.3-5.3-3.2-7-5.8c-1.7-2.6-2.6-5.7-2.6-9.4c0-3.4,0.8-6.3,2.3-8.9c1.5-2.6,3.7-4.6,6.7-6c3-1.4,6.6-2.2,10.9-2.2
	c3.9,0,7.3,0.7,10.3,2c3,1.3,5.3,3.2,7,5.8c1.7,2.5,2.6,5.7,2.6,9.4c0,3.4-0.8,6.3-2.3,8.9c-1.5,2.6-3.7,4.6-6.7,6.1
	C297.7,55,294,55.8,289.7,55.8z M289.7,41.5c0.9,0,1.6-0.3,2.2-0.8c0.6-0.5,0.8-1.2,0.8-2.1c0-0.9-0.3-1.6-0.8-2.1
	c-0.6-0.5-1.3-0.8-2.2-0.8c-1,0-1.7,0.3-2.2,0.8c-0.5,0.5-0.8,1.3-0.8,2.1c0,0.9,0.3,1.5,0.8,2.1C288,41.2,288.7,41.5,289.7,41.5z
	 M313.9,55l-5.2-31.1v-1.6h16.5l0.7,8.3c0.2,2.7,0.3,4.9,0.4,6.6c0.1,1.7,0.1,3.1,0.1,4.3h1.2c0-0.8,0.1-1.9,0.3-3.3
	c0.2-1.4,0.4-3,0.6-4.8c0.3-1.8,0.5-3.5,0.8-5.4l1-5.7h15.3l1.1,5.7c0.3,1.8,0.6,3.5,0.8,5.3c0.2,1.8,0.4,3.3,0.6,4.8
	c0.2,1.4,0.3,2.5,0.3,3.4h1.3c0-1.2,0-2.7,0.1-4.4c0.1-1.7,0.2-3.9,0.3-6.5l0.8-8.3h16.5v1.6L362.3,55h-22.2l-0.9-8.5
	c-0.1-1.6-0.2-2.9-0.2-4c0-1-0.1-1.8-0.2-2.4h-1.3c0,0.6-0.1,1.4-0.1,2.4c0,1-0.1,2.3-0.2,4l-1,8.5H313.9z M382.8,55.8
	c-3.3,0-6.3-0.3-8.9-0.9c-2.6-0.6-4.7-1.3-6.2-2.2V40.8l0.9-0.5c1.8,0.9,3.7,1.4,5.7,1.7c2,0.3,3.9,0.4,5.8,0.4c0.7,0,1.3,0,2-0.1
	c0.7-0.1,1.1-0.1,1.3-0.3v-1.7c-0.2,0-0.5,0.1-0.9,0.1c-0.4,0-0.9,0-1.4,0c-4.4,0-7.9-0.7-10.3-2c-2.4-1.3-3.6-3.4-3.6-6.3
	c0-2.5,0.8-4.5,2.3-6.1c1.6-1.6,3.7-2.7,6.4-3.5c2.7-0.8,5.7-1.1,9.1-1.1c1.8,0,3.7,0.1,5.8,0.3c2,0.2,4,0.5,5.8,0.8
	c1.8,0.4,3.3,0.8,4.3,1.4V37l-0.7,0.4c-0.9-0.5-2-1-3.4-1.3c-1.4-0.3-2.7-0.6-4.1-0.8c-1.4-0.2-2.5-0.3-3.4-0.3
	c-1.1,0-1.9,0-2.5,0.1c-0.6,0.1-1.1,0.1-1.5,0.3v1.8c0.7-0.1,1.2-0.1,1.5-0.1c0.3,0,0.7,0,1.2,0c4.5,0.1,7.9,0.8,10.2,2.1
	c2.3,1.3,3.4,3.5,3.4,6.5c0,3.5-1.7,6.1-5,7.7C393.2,55,388.6,55.8,382.8,55.8z M403,55V15h17.8v19.1h1l2.9-11.9h19.1v2l-7.5,11.3
	l7.5,18V55h-19.5l-2.6-11.1h-0.9V55H403z M453.9,23.3c-2.7,0-4.9-0.4-6.6-1.2c-1.7-0.8-2.6-1.9-2.6-3.3c0-1.4,0.8-2.4,2.4-3.3
	c1.6-0.8,3.9-1.2,6.8-1.2c2.7,0,5,0.4,6.6,1.2c1.7,0.8,2.5,1.9,2.5,3.4c0,1.4-0.8,2.4-2.4,3.3C459.1,22.9,456.8,23.3,453.9,23.3z
	 M445,55V22.7c1.8,1.6,4.8,2.4,8.9,2.4c2,0,3.8-0.2,5.4-0.7c1.5-0.4,2.7-1,3.5-1.8V55H445z M13,55V22.2h17.4l0.4,12.1h1
	c0-3.4,0.5-6,1.4-7.9c0.9-1.9,2.2-3.2,3.8-3.9c1.6-0.7,3.6-1.1,5.8-1.1c3.6,0,6.2,1,7.8,3.1c1.7,2,2.5,5.3,2.5,9.8h1
	c0-3.4,0.5-6,1.4-7.9c0.9-1.9,2.2-3.2,3.8-3.9c1.6-0.7,3.6-1.1,5.8-1.1c3.6,0,6.2,1,7.8,3c1.7,2,2.5,5,2.5,9V55H57.5V39.8
	c0-1.4-0.2-2.3-0.6-2.8c-0.4-0.5-1-0.7-1.7-0.7c-0.9,0-1.4,0.3-1.7,0.9c-0.3,0.6-0.5,1.4-0.5,2.6V55H35.2V39.8
	c0-1.4-0.2-2.3-0.6-2.8c-0.4-0.5-1-0.7-1.7-0.7c-0.9,0-1.4,0.3-1.7,0.9c-0.3,0.6-0.5,1.4-0.5,2.6V55H13z M96.4,55.8
	c-3.8,0-7.1-0.7-10.1-2c-2.9-1.3-5.2-3.3-6.8-5.9c-1.6-2.6-2.5-5.7-2.5-9.4c0-3.7,0.8-6.8,2.5-9.3c1.6-2.5,4-4.5,6.9-5.8
	c3-1.3,6.5-2,10.4-2c2.7,0,5.3,0.3,7.6,1c2.3,0.7,4.1,1.4,5.4,2.4v11.9l-0.6,0.3c-1.2-0.8-2.5-1.3-4.1-1.7c-1.6-0.3-3.1-0.5-4.6-0.5
	c-2.2,0-3.9,0.3-5,1c-1.1,0.7-1.7,1.5-1.7,2.7c0,1.2,0.6,2.2,1.8,2.8c1.2,0.6,2.8,0.9,4.8,0.9c1.7,0,3.2-0.2,4.7-0.6
	c1.5-0.4,2.8-0.9,3.9-1.6l0.8,0.3v11.8c-1.4,1-3.3,1.8-5.8,2.5C101.6,55.4,99,55.8,96.4,55.8z M145.9,55l-33.7-0.1V42.2
	c2.1-1.4,4.2-2.7,6.3-3.8c2.1-1.1,3.8-2,5.2-2.6l-0.2-0.5c-1.9,0.2-3.5,0.3-4.8,0.3c-1.3,0.1-2.4,0.1-3.4,0.1c-1,0-2,0-3,0V22.2
	l33.7,0.1v12.8c-1.8,1.1-3.7,2.3-5.8,3.4c-2.1,1.1-3.9,2.1-5.6,2.9l0.1,0.5c1.9-0.2,3.5-0.3,4.8-0.4c1.3-0.1,2.5-0.1,3.5-0.1
	c1,0,2,0,3,0V55z M181.1,22.3c0,0,0,1.2-0.1,2.9c-1.3-0.9-3.6-2-5.9-2.7c-2.3-0.7-4.9-1-7.6-1c-4,0-7.5,0.7-10.4,2
	c-3,1.3-5.3,3.2-6.9,5.8c-1.6,2.5-2.5,5.6-2.5,9.3c0,3.7,0.8,6.8,2.5,9.4c1.6,2.6,3.9,4.5,6.8,5.9c2.9,1.3,6.3,2,10.1,2
	c2.6,0,5.2-0.3,7.7-1c2.5-0.7,4.6-1.6,5.9-2.6c0,1.7,0,2.8,0,2.8h17.8V22.3H181.1z M175.5,41.6c-0.8,0.7-1.9,1-3.2,1
	c-1.4,0-2.5-0.4-3.3-1.1c-0.8-0.7-1.1-1.6-1.1-2.7c0-1.1,0.4-2.1,1.1-2.8c0.8-0.7,1.9-1.1,3.3-1.1c1.3,0,2.4,0.4,3.2,1.1
	c0.8,0.7,1.2,1.6,1.2,2.8C176.7,40,176.3,40.9,175.5,41.6z"/>
</svg>
