<?xml version="1.0" encoding="UTF-8"?>
<svg id="Warstwa_1" data-name="Warstwa 1" xmlns="http://www.w3.org/2000/svg" viewBox="0 0 360 63">
  <defs>
    <style>
      .cls-1 {
        fill: #3251ff;
      }
    </style>
  </defs>
  <path class="cls-1" d="M.12,61.4h.06c2.95,0,4.91-1.97,4.91-4.91v-30.16c0-3.07-.92-4.91-4.98-4.91v-.62h6.08c5.04,0,6.26-.86,6.94-1.72h.61l.06,7.99c2.09-4.24,6.88-7.13,11.73-7.13s7.92,2.83,8.84,7.25c2.27-4.42,6.94-7.25,11.91-7.25,5.47,0,9.09,3.93,9.09,9.83v26.72c0,2.95,1.97,4.91,4.91,4.91h.06v.62h-18.73v-.62h.06c2.95,0,4.91-1.97,4.91-4.91v-27.33c0-4.12-1.78-6.76-4.42-6.76s-5.59,2.46-7.62,6.08c.06.18.06.43.06.61v27.4c0,2.95,1.97,4.91,4.91,4.91h.06v.62h-18.73v-.62h.06c2.95,0,4.91-1.97,4.91-4.91v-27.33c0-4.12-1.72-6.76-4.36-6.76s-5.53,2.33-7.55,6.02v28.07c0,2.95,1.97,4.91,4.91,4.91h.06v.62H.12v-.62Z"/>
  <path class="cls-1" d="M86.95,48.25c-.49,3.91-2.19,14.63-14.7,14.63-10.22,0-14.66-13.1-14.66-21.67,0-14.76,6.63-21.27,15.54-21.27,6.88,0,11.73,3.99,12.65,10.38l-7.37,4.11c0-4.24-.55-7.55-1.59-9.95-1.04-2.4-2.58-3.62-4.48-3.62-3.93,0-6.39,8.63-6.39,16.48,0,9.79,1.96,20.18,9.62,20.18,4.72,0,8.41-2.26,10.19-8.61l1.2-.67Z"/>
  <path class="cls-1" d="M86.72,61.4l14.98-39.86h-4.3c-4.67,0-7.61,2.76-8.6,9.15h-.74l1.29-9.89h21.62v.62l-15.11,39.8h6.51c4.98,0,7.92-3.07,9.09-10.44h.74l-1.54,11.24h-23.95v-.62Z"/>
  <path class="cls-1" d="M146.03,57.6c-.92,1.04-1.84,1.53-2.76,1.53-1.54,0-2.39-1.29-2.39-3.56v-24.76c0-6.69-4.85-10.87-11.79-10.87-6.14,0-11.91,3.38-14,8.41l6.63,3.81c.74-7.13,3.01-11.36,6.14-11.42,2.64,0,4.18,2.95,4.18,7.62v9.11l-5.71,2.09c-5.41,1.97-7.81,2.77-10.38,5.34-1.24,1.24-2.33,3.77-2.33,5.16,0,9.79,3.32,12.82,8.29,12.82,3.56,0,6.2-1.72,10.2-5.83.55,3.5,3.01,5.83,6.14,5.83,2.88,0,6.14-1.97,8.29-4.85l-.49-.43ZM131.97,56.19c-2.15,2.02-3.69,2.88-5.47,2.88-3.51,0-4.67-3.57-4.67-11.47,0-2.71,1.54-6.08,7.74-8.41l2.46-.92-.06,17.92Z"/>
  <path class="cls-1" d="M144.83,61.4h.06c2.95,0,4.91-1.97,4.91-4.91v-30.16c0-3.07-.92-4.91-4.98-4.91v-.62h6.08c4.36,0,6.33-.92,7.25-2.33h.31l.06,10.07c1.54-3.69,4.48-8.66,9.89-8.66,1.23,0,2.64.19,4.18.86l-2.4,7.19c-2.95-1.66-5.04-2.21-6.7-2.21-2.76,0-3.87,1.97-4.85,4.36v26.41c0,2.95,1.97,4.91,4.91,4.91h.06v.62h-18.79v-.62Z"/>
  <path class="cls-1" d="M169.58,61.4h.06c2.95,0,4.91-1.97,4.91-4.91V7.86c0-2.95-2.03-4.91-4.98-4.91v-.62h6.26c2.15,0,3.75-.25,4.79-.68.98-.43,1.72-.98,2.15-1.66h.62v40.82l15.9-13.69c1.72-1.41,2.7-2.7,3.01-3.75.25-1.05,0-1.6-.8-1.78l-.8-.19v-.62h9.15v.62l-.62.12c-1.97.37-3.62,1.41-7.55,4.67l-9.7,8.47,15.39,23.9c1.54,2.03,2.52,2.83,3.93,2.83v.62h-16.21v-.62c.98,0,1.66-.06,2.03-.25.37-.12.55-.37.55-.8,0-.31-.12-.8-.43-1.41-.31-.62-.74-1.48-1.41-2.58l-10.17-16.35-2.27,1.97v14.51c0,2.95,1.97,4.91,4.91,4.91h.06v.62h-18.79v-.62Z"/>
  <path class="cls-1" d="M301.53,61.4h.06c2.95,0,4.91-1.97,4.91-4.91V7.86c0-2.95-2.03-4.91-4.98-4.91v-.62h6.26c2.15,0,3.75-.25,4.79-.68.98-.43,1.72-.98,2.15-1.66h.62v40.82l15.9-13.69c1.72-1.41,2.7-2.7,3.01-3.75.25-1.05,0-1.6-.8-1.78l-.8-.19v-.62h9.15v.62l-.62.12c-1.97.37-3.62,1.41-7.55,4.67l-9.7,8.47,15.39,23.9c1.54,2.03,2.52,2.83,3.93,2.83v.62h-16.21v-.62c.98,0,1.66-.06,2.03-.25.37-.12.55-.37.55-.8,0-.31-.12-.8-.43-1.41-.31-.62-.74-1.48-1.41-2.58l-10.17-16.35-2.27,1.97v14.51c0,2.95,1.97,4.91,4.91,4.91h.06v.62h-18.79v-.62Z"/>
  <path class="cls-1" d="M222.92,19.94c-10.07,0-16.77,7.29-16.77,22.05,0,13.68,6.69,20.89,16.77,20.89s16.71-5.9,16.71-20.89-6.7-22.05-16.71-22.05ZM222.86,62.08c-3.87,0-6.88-9.37-6.88-20.15s2.7-21.25,6.94-21.25c3.93,0,6.88,10.33,6.88,21.25s-2.7,20.15-6.94,20.15Z"/>
  <path class="cls-1" d="M282.03,61.66l-.76-11.55h.8c1.29,7.74,4.63,11.61,8.87,11.61s6.39-1.49,6.39-4.44c0-2.77,1.07-7.71-7.8-12.2l-1.78-.98c-6.29-3.87-7.01-10.5-6.97-15.2.04-5.53,4.7-8.97,11.52-8.97,3.44,0,3.79,1.21,8.77,1.21l.51,9.89h-.74c-.8-5.77-4.54-9.89-8.11-9.89-3.13,0-5.1,1.37-5.1,4.31,0,2.21-.79,8.08,5.22,11.27l1.84.92c6.74,3.37,8.43,9.82,8.57,15.51.16,6.32-4.21,9.64-11.89,9.7-4.24,0-3.01-1.21-9.34-1.21Z"/>
  <g>
    <path class="cls-1" d="M341.09,61.4h.06c2.95,0,4.91-1.97,4.91-4.91v-30.16c0-3.07-.92-4.91-4.97-4.91v-.62h6.26c2.15,0,3.75-.25,4.79-.68.98-.43,1.72-.98,2.15-1.66h.62v38.02c0,2.95,1.97,4.91,4.91,4.91h.06v.62h-18.79v-.62Z"/>
    <path class="cls-1" d="M345.07,9.5c0-2.95,2.15-5.1,5.1-5.1s5.04,2.21,5.04,5.1-2.15,5.1-5.04,5.1-5.1-2.15-5.1-5.1Z"/>
  </g>
  <path class="cls-1" d="M275.05,20.8v.62c1.67.25,2.58,1.66,2.58,3.69,0,0,0,0,0,.01,0,.69-.12,1.37-.33,2.03l-7.82,25.02-8.12-24.66c-1.06-3.38-.41-5.77,1.77-6.08v-.62h-12.74v.62c1.77.06,2.68,1.41,3.29,3.32l5.53,16.29-3.94,11.11.07.14v.04s-8.75-24.82-8.75-24.82c-1.21-3.38-.4-5.77,1.97-6.08v-.62h-14.21v.62c1.97.06,2.98,1.35,3.69,3.32l13.54,38.27h.5l7.49-20.76,6.68,20.76h.4l3.35-10.54,8.23-25.84c1.09-3.01,2.55-4.75,4.01-5.2v-.62h-7.18ZM269.53,52.31h0Z"/>
</svg>