<?xml version="1.0" encoding="utf-8"?>
<!-- Generator: Adobe Illustrator 24.3.0, SVG Export Plug-In . SVG Version: 6.00 Build 0)  -->
<svg version="1.1" id="Layer_1" xmlns="http://www.w3.org/2000/svg" xmlns:xlink="http://www.w3.org/1999/xlink" x="0px" y="0px"
	 viewBox="0 0 28 28" style="enable-background:new 0 0 28 28;" xml:space="preserve">
<path d="M0,21.4L0,21.4c1.4,0,2.3-0.9,2.3-2.3V9.7c0-1.4-0.4-2.3-2.3-2.3V7.1h2.8c2.3,0,2.9-0.4,3.2-0.8h0.3l0,3.7
	c1-2,3.2-3.3,5.5-3.3c2.2,0,3.7,1.3,4.1,3.4c1.1-2.1,3.2-3.4,5.5-3.4c2.5,0,4.2,1.8,4.2,4.6v7.8c0,1.4,0.9,2.3,2.3,2.3h0v0.3h-8.7
	v-0.3h0c1.4,0,2.3-0.9,2.3-2.3v-8c0-1.9-0.8-3.1-2.1-3.1C18.4,7.9,17,9,16,10.7c0,0.1,0,0.2,0,0.3v8.1c0,1.4,0.9,2.3,2.3,2.3h0v0.3
	H9.6v-0.3h0c1.4,0,2.3-0.9,2.3-2.3v-8c0-1.9-0.8-3.1-2-3.1c-1.2,0-2.6,1.1-3.5,2.8v8.4c0,1.4,0.9,2.3,2.3,2.3h0v0.3H0V21.4z"/>
</svg>
