<?xml version="1.0" encoding="UTF-8"?>
<svg id="Warstwa_1" data-name="Warstwa 1" xmlns="http://www.w3.org/2000/svg" viewBox="0 0 672 479">
  <defs>
    <style>
      .cls-1 {
        fill: #3251ff;
      }
    </style>
  </defs>
  <path class="cls-1" d="M0,472.09h.7c32.88,0,54.8-21.92,54.8-54.8V80.9c0-34.25-10.29-54.8-55.5-54.8v-6.86h67.82C123.99,19.24,137.69,9.64,145.24.05h6.83l.7,89.08C176.06,41.85,229.49,9.64,283.6,9.64s88.38,31.51,98.64,80.85c25.35-49.33,77.42-80.85,132.89-80.85,60.96,0,101.4,43.84,101.4,109.6v298.05c0,32.88,21.92,54.8,54.8,54.8h.67v6.86h-208.91v-6.86h.67c32.88,0,54.8-21.92,54.8-54.8V112.41c0-45.9-19.86-75.35-49.31-75.35s-62.33,27.39-84.95,67.82c.7,2.04.7,4.77.7,6.83v305.58c0,32.88,21.92,54.8,54.77,54.8h.7v6.86h-208.91v-6.86h.67c32.88,0,54.8-21.92,54.8-54.8V112.41c0-45.9-19.19-75.35-48.64-75.35s-61.66,26.02-84.25,67.13v313.11c0,32.88,21.92,54.8,54.8,54.8h.7v6.86H0v-6.86Z"/>
</svg>