<?xml version="1.0" encoding="utf-8"?>
<!-- Generator: Adobe Illustrator 24.3.0, SVG Export Plug-In . SVG Version: 6.00 Build 0)  -->
<svg version="1.1" id="Layer_1" xmlns="http://www.w3.org/2000/svg" xmlns:xlink="http://www.w3.org/1999/xlink" x="0px" y="0px"
	 viewBox="0 0 1080 1080" style="enable-background:new 0 0 1080 1080;" xml:space="preserve">
<style type="text/css">
	.st0{fill:#3251FF;}
</style>
<g>
	<path class="st0" d="M204.3,720.5V367.6h187.3l4.4,130.5h10.6c0.4-36.2,5.4-64.4,15-84.6c9.6-20.2,23.2-34.2,40.9-42.2
		c17.7-7.9,38.4-11.9,62.1-11.9c38.3,0,66.4,11,84.3,33.1c17.9,22.1,26.9,57.2,26.9,105.5h10.6c0.4-36.2,5.4-64.4,15-84.6
		c9.6-20.2,23.2-34.2,40.9-42.2c17.7-7.9,38.4-11.9,62.1-11.9c38.3,0,66.4,10.6,84.3,31.9c17.9,21.2,26.9,53.5,26.9,96.8v232.3
		H683.9V556.2c0-15-2.2-25-6.6-30c-4.4-5-10.3-7.5-17.8-7.5c-9.2,0-15.4,3.1-18.7,9.4c-3.3,6.2-5,15.6-5,28.1v164.2H444.1V556.2
		c0-15-2.2-25-6.6-30c-4.4-5-10.3-7.5-17.8-7.5c-9.2,0-15.4,3.1-18.7,9.4c-3.3,6.2-5,15.6-5,28.1v164.2H204.3z"/>
</g>
</svg>
