<?xml version="1.0" encoding="utf-8"?>
<!-- Generator: Adobe Illustrator 24.3.0, SVG Export Plug-In . SVG Version: 6.00 Build 0)  -->
<svg version="1.1" id="Layer_1" xmlns="http://www.w3.org/2000/svg" xmlns:xlink="http://www.w3.org/1999/xlink" x="0px" y="0px"
	 viewBox="0 0 24 24" style="enable-background:new 0 0 24 24;" xml:space="preserve">
<style type="text/css">
	.st0{fill:#050505;}
</style>
<path class="st0" d="M0,18.5V5.8h6.7l0.2,4.7h0.4c0-1.3,0.2-2.3,0.5-3C8.1,6.8,8.6,6.3,9.2,6c0.6-0.3,1.4-0.4,2.2-0.4
	c1.4,0,2.4,0.4,3,1.2s1,2,1,3.8h0.4c0-1.3,0.2-2.3,0.5-3c0.3-0.7,0.8-1.2,1.5-1.5c0.6-0.3,1.4-0.4,2.2-0.4c1.4,0,2.4,0.4,3,1.1
	c0.6,0.8,1,1.9,1,3.5v8.3h-6.9v-5.9c0-0.5-0.1-0.9-0.2-1.1c-0.2-0.2-0.4-0.3-0.6-0.3c-0.3,0-0.6,0.1-0.7,0.3c-0.1,0.2-0.2,0.6-0.2,1
	v5.9H8.6v-5.9c0-0.5-0.1-0.9-0.2-1.1c-0.2-0.2-0.4-0.3-0.6-0.3c-0.3,0-0.6,0.1-0.7,0.3s-0.2,0.6-0.2,1v5.9H0V18.5z"/>
</svg>
