<?xml version="1.0" encoding="UTF-8"?>
<svg id="Warstwa_1" data-name="Warstwa 1" xmlns="http://www.w3.org/2000/svg" viewBox="0 0 263 46">
  <defs>
    <style>
      .cls-1 {
        fill: #3251ff;
      }
    </style>
  </defs>
  <path class="cls-1" d="M.16,44.83h.05c2.15,0,3.59-1.43,3.59-3.59v-22.02c0-2.24-.67-3.59-3.63-3.59v-.45h4.44c3.68,0,4.57-.63,5.07-1.26h.45l.05,5.83c1.52-3.09,5.02-5.2,8.56-5.2s5.79,2.06,6.46,5.29c1.66-3.23,5.07-5.29,8.7-5.29,3.99,0,6.64,2.87,6.64,7.17v19.51c0,2.15,1.43,3.59,3.59,3.59h.04v.45h-13.68v-.45h.04c2.15,0,3.59-1.43,3.59-3.59v-19.96c0-3-1.3-4.93-3.23-4.93s-4.08,1.79-5.56,4.44c.05.13.05.31.05.45v20c0,2.15,1.43,3.59,3.59,3.59h.05v.45h-13.68v-.45h.04c2.15,0,3.59-1.43,3.59-3.59v-19.96c0-3-1.26-4.93-3.18-4.93s-4.04,1.7-5.52,4.39v20.5c0,2.15,1.43,3.59,3.59,3.59h.05v.45H.16v-.45Z"/>
  <path class="cls-1" d="M63.56,35.23c-.36,2.85-1.6,10.68-10.73,10.68-7.46,0-10.71-9.57-10.71-15.82,0-10.78,4.84-15.53,11.34-15.53,5.02,0,8.56,2.92,9.24,7.58l-5.38,3c0-3.09-.4-5.51-1.16-7.26-.76-1.75-1.88-2.64-3.27-2.64-2.87,0-4.66,6.3-4.66,12.03,0,7.15,1.43,14.73,7.02,14.73,3.45,0,6.14-1.65,7.44-6.28l.88-.49Z"/>
  <path class="cls-1" d="M63.39,44.83l10.94-29.11h-3.14c-3.41,0-5.56,2.02-6.28,6.68h-.54l.94-7.22h15.78v.45l-11.03,29.06h4.75c3.63,0,5.79-2.24,6.64-7.62h.54l-1.12,8.21h-17.49v-.45Z"/>
  <path class="cls-1" d="M106.69,42.06c-.67.76-1.34,1.12-2.02,1.12-1.12,0-1.75-.94-1.75-2.6v-18.08c0-4.89-3.54-7.94-8.61-7.94-4.48,0-8.7,2.47-10.22,6.14l4.84,2.78c.54-5.2,2.2-8.29,4.48-8.34,1.93,0,3.05,2.15,3.05,5.56v6.66l-4.17,1.52c-3.95,1.43-5.7,2.02-7.58,3.9-.91.91-1.7,2.75-1.7,3.77,0,7.15,2.42,9.36,6.05,9.36,2.6,0,4.53-1.26,7.45-4.26.4,2.55,2.2,4.26,4.48,4.26,2.11,0,4.48-1.43,6.05-3.54l-.36-.31ZM96.43,41.02c-1.57,1.48-2.69,2.11-3.99,2.11-2.56,0-3.41-2.61-3.41-8.37,0-1.98,1.12-4.44,5.65-6.14l1.79-.67-.04,13.08Z"/>
  <path class="cls-1" d="M105.82,44.83h.05c2.15,0,3.59-1.43,3.59-3.59v-22.02c0-2.24-.67-3.59-3.63-3.59v-.45h4.44c3.18,0,4.62-.67,5.29-1.7h.22l.05,7.35c1.12-2.69,3.27-6.32,7.22-6.32.9,0,1.93.14,3.05.63l-1.75,5.25c-2.15-1.21-3.68-1.62-4.89-1.62-2.02,0-2.82,1.43-3.54,3.18v19.29c0,2.15,1.43,3.59,3.59,3.59h.05v.45h-13.72v-.45Z"/>
  <path class="cls-1" d="M123.89,44.83h.05c2.15,0,3.59-1.43,3.59-3.59V5.74c0-2.15-1.48-3.59-3.63-3.59v-.45h4.57c1.57,0,2.74-.18,3.5-.49.72-.31,1.26-.72,1.57-1.21h.45v29.8l11.61-10c1.26-1.03,1.97-1.97,2.2-2.73.18-.76,0-1.17-.58-1.3l-.58-.14v-.45h6.68v.45l-.45.09c-1.43.27-2.65,1.03-5.52,3.41l-7.09,6.18,11.24,17.45c1.12,1.48,1.84,2.06,2.87,2.06v.45h-11.84v-.45c.72,0,1.21-.04,1.48-.18.27-.09.4-.27.4-.58,0-.22-.09-.58-.31-1.03-.22-.45-.54-1.08-1.03-1.88l-7.43-11.94-1.66,1.43v10.59c0,2.15,1.43,3.59,3.59,3.59h.04v.45h-13.72v-.45Z"/>
  <path class="cls-1" d="M220.24,44.83h.05c2.15,0,3.59-1.43,3.59-3.59V5.74c0-2.15-1.48-3.59-3.63-3.59v-.45h4.57c1.57,0,2.74-.18,3.5-.49.72-.31,1.26-.72,1.57-1.21h.45v29.8l11.61-10c1.26-1.03,1.97-1.97,2.2-2.73.18-.76,0-1.17-.58-1.3l-.58-.14v-.45h6.68v.45l-.45.09c-1.43.27-2.65,1.03-5.52,3.41l-7.09,6.18,11.24,17.45c1.12,1.48,1.84,2.06,2.87,2.06v.45h-11.84v-.45c.72,0,1.21-.04,1.48-.18.27-.09.4-.27.4-.58,0-.22-.09-.58-.31-1.03-.22-.45-.54-1.08-1.03-1.88l-7.43-11.94-1.66,1.43v10.59c0,2.15,1.43,3.59,3.59,3.59h.04v.45h-13.72v-.45Z"/>
  <path class="cls-1" d="M162.84,14.56c-7.36,0-12.24,5.32-12.24,16.1,0,9.99,4.89,15.25,12.24,15.25s12.2-4.31,12.2-15.25-4.89-16.1-12.2-16.1ZM162.8,45.33c-2.83,0-5.02-6.84-5.02-14.71s1.97-15.52,5.07-15.52c2.87,0,5.02,7.54,5.02,15.52s-1.97,14.71-5.07,14.71Z"/>
  <path class="cls-1" d="M206,45.02l-.56-8.43h.58c.94,5.65,3.38,8.48,6.48,8.48s4.66-1.09,4.66-3.24c0-2.02.78-5.63-5.69-8.91l-1.3-.72c-4.59-2.82-5.12-7.67-5.09-11.1.03-4.03,3.43-6.55,8.41-6.55,2.51,0,2.77.89,6.4.89l.37,7.22h-.54c-.58-4.22-3.32-7.22-5.92-7.22-2.29,0-3.72,1-3.72,3.15,0,1.61-.58,5.9,3.81,8.23l1.35.67c4.92,2.46,6.16,7.17,6.26,11.33.11,4.62-3.07,7.04-8.68,7.09-3.09,0-2.2-.89-6.82-.89Z"/>
  <g>
    <path class="cls-1" d="M249.12,44.83h.05c2.15,0,3.59-1.43,3.59-3.59v-22.02c0-2.24-.67-3.59-3.63-3.59v-.45h4.57c1.57,0,2.74-.18,3.5-.49.72-.31,1.26-.72,1.57-1.21h.45v27.76c0,2.15,1.43,3.59,3.59,3.59h.05v.45h-13.72v-.45Z"/>
    <path class="cls-1" d="M252.03,6.94c0-2.15,1.57-3.72,3.72-3.72s3.68,1.61,3.68,3.72-1.57,3.72-3.68,3.72-3.72-1.57-3.72-3.72Z"/>
  </g>
  <path class="cls-1" d="M200.9,15.19v.45c1.22.18,1.88,1.21,1.88,2.69,0,0,0,0,0,0,0,.5-.09,1-.24,1.48l-5.71,18.27-5.93-18.01c-.78-2.47-.3-4.22,1.29-4.44v-.45h-9.31v.45c1.29.04,1.96,1.03,2.4,2.42l4.04,11.89-2.88,8.11.05.1v.03s-6.39-18.12-6.39-18.12c-.89-2.47-.29-4.22,1.44-4.44v-.45h-10.38v.45c1.44.04,2.18.99,2.7,2.42l9.89,27.94h.37l5.47-15.16,4.87,15.16h.29l2.45-7.7,6.01-18.87c.8-2.2,1.86-3.47,2.93-3.8v-.45h-5.24ZM196.87,38.2h0Z"/>
</svg>