<?xml version="1.0" encoding="utf-8"?>
<!-- Generator: Adobe Illustrator 24.3.0, SVG Export Plug-In . SVG Version: 6.00 Build 0)  -->
<svg version="1.1" id="Layer_1" xmlns="http://www.w3.org/2000/svg" xmlns:xlink="http://www.w3.org/1999/xlink" x="0px" y="0px"
	 viewBox="0 0 352 75" style="enable-background:new 0 0 352 75;" xml:space="preserve">
<style type="text/css">
	.st0{display:none;fill:#F5F5F5;}
	.st1{display:none;}
	.st2{display:inline;fill:#3251FF;}
	.st3{display:inline;fill:#F9F9F9;}
	.st4{fill:#3251FF;}
</style>
<rect id="Rectangle_43" x="-0.2" y="2.5" class="st0" width="476" height="70"/>
<g class="st1">
	<path class="st2" d="M70.8,29.8c2.9,2.9,4.3,6.9,4.3,12v22.3h-9.6v-21c0-3-0.8-5.3-2.3-6.8c-1.5-1.6-3.6-2.4-6.2-2.4
		c-2.6,0-4.7,0.8-6.2,2.4s-2.3,3.9-2.3,6.8v21h-9.6v-21c0-3-0.8-5.3-2.3-6.8c-1.5-1.6-3.6-2.4-6.2-2.4c-2.7,0-4.8,0.8-6.3,2.4
		s-2.3,3.9-2.3,6.8v21h-9.6v-38h9.6v4.6c1.2-1.6,2.8-2.9,4.8-3.8c1.9-0.9,4.1-1.4,6.4-1.4c3,0,5.6,0.6,8,1.9
		c2.3,1.3,4.1,3.1,5.4,5.4c1.2-2.2,3-4,5.4-5.3s4.9-2,7.7-2C64.2,25.5,67.9,26.9,70.8,29.8z"/>
	<path class="st2" d="M84.1,34.8c1.6-3,3.8-5.2,6.7-6.9c2.8-1.6,6.1-2.4,9.8-2.4c4.7,0,8.6,1.2,11.7,3.5c3.1,2.4,5.2,5.7,6.2,9.9
		h-10.4c-0.5-1.6-1.5-2.9-2.8-3.9c-1.3-0.9-2.9-1.4-4.8-1.4c-2.7,0-4.9,1-6.5,3s-2.4,4.8-2.4,8.5c0,3.6,0.8,6.4,2.4,8.4s3.8,3,6.5,3
		c3.9,0,6.4-1.7,7.6-5.2h10.4c-1.1,4.1-3.1,7.4-6.3,9.8c-3.1,2.4-7,3.6-11.7,3.6c-3.7,0-6.9-0.8-9.8-2.4c-2.8-1.6-5.1-3.9-6.7-6.9
		s-2.4-6.4-2.4-10.3C81.7,41.2,82.5,37.7,84.1,34.8z"/>
	<path class="st2" d="M134.4,56.2h17v7.9h-27.9v-7.8l16.6-22.4h-16.6V26h27.6v7.8L134.4,56.2z"/>
	<path class="st2" d="M158.6,34.7c1.5-3,3.6-5.3,6.3-6.9c2.6-1.6,5.6-2.4,8.8-2.4c2.8,0,5.3,0.6,7.5,1.7c2.1,1.1,3.8,2.6,5.1,4.3V26
		h9.7v38.1h-9.7v-5.6c-1.2,1.8-2.9,3.3-5.1,4.4c-2.2,1.2-4.7,1.8-7.5,1.8c-3.2,0-6.1-0.8-8.8-2.5c-2.6-1.6-4.7-4-6.3-7
		c-1.5-3-2.3-6.4-2.3-10.3C156.3,41.1,157.1,37.7,158.6,34.7z M184.9,39.1c-0.9-1.7-2.2-3-3.7-3.8c-1.6-0.9-3.2-1.3-5-1.3
		s-3.4,0.4-4.9,1.3s-2.7,2.1-3.7,3.8c-0.9,1.7-1.4,3.7-1.4,5.9c0,2.3,0.5,4.3,1.4,6s2.2,3,3.7,4c1.5,0.9,3.2,1.4,4.9,1.4
		c1.8,0,3.5-0.4,5-1.3c1.6-0.9,2.8-2.2,3.7-3.8c0.9-1.7,1.4-3.7,1.4-6C186.2,42.8,185.8,40.8,184.9,39.1z"/>
	<path class="st2" d="M219.8,27.2c2-1.1,4.3-1.7,6.8-1.7v10.1h-2.5c-3,0-5.3,0.7-6.8,2.1c-1.5,1.4-2.3,3.9-2.3,7.4v19h-9.6v-38h9.6
		V32C216.2,30,217.8,28.4,219.8,27.2z"/>
	<path class="st2" d="M255.6,64.1l-12.9-16.2v16.2h-9.6V13.3h9.6v28.9l12.8-16.1H268l-16.8,19.1l16.9,19L255.6,64.1L255.6,64.1
		L255.6,64.1z"/>
	<path class="st2" d="M280.2,62.3c-2.9-1.6-5.2-3.9-6.9-6.9c-1.7-3-2.5-6.4-2.5-10.3s0.9-7.3,2.6-10.3s4.1-5.3,7-6.9
		c3-1.6,6.3-2.4,10-2.4s7,0.8,10,2.4s5.3,3.9,7,6.9s2.6,6.4,2.6,10.3s-0.9,7.3-2.6,10.3c-1.8,3-4.1,5.3-7.1,6.9
		c-3,1.6-6.4,2.4-10.1,2.4S283.2,63.9,280.2,62.3z M295,55.1c1.5-0.8,2.8-2.1,3.7-3.8c0.9-1.7,1.4-3.8,1.4-6.2c0-3.6-1-6.4-2.9-8.3
		c-1.9-1.9-4.2-2.9-7-2.9c-2.7,0-5,1-6.9,2.9s-2.8,4.7-2.8,8.3s0.9,6.4,2.7,8.3c1.8,1.9,4.1,2.9,6.8,2.9
		C291.9,56.4,293.5,55.9,295,55.1z"/>
	<path class="st2" d="M369.8,26.1l-11.1,38.1h-10.4l-6.9-26.7l-6.9,26.6h-10.4l-11.3-38h9.8l6.7,29l7.3-29h10.2l7.1,28.9l6.7-28.9
		C360.6,26.1,369.8,26.1,369.8,26.1z"/>
	<path class="st2" d="M381.2,63.1c-2.5-1.1-4.4-2.6-5.9-4.6c-1.4-1.9-2.2-4.1-2.4-6.4h9.7c0.2,1.5,0.9,2.7,2.2,3.6
		c1.3,1,2.8,1.4,4.7,1.4c1.8,0,3.3-0.4,4.3-1.1c1-0.7,1.5-1.7,1.5-2.8c0-1.2-0.6-2.2-1.9-2.8s-3.3-1.3-6-2c-2.8-0.7-5.2-1.4-7-2.1
		c-1.8-0.7-3.4-1.9-4.7-3.4c-1.3-1.5-2-3.5-2-6.1c0-2.1,0.6-4,1.8-5.8c1.2-1.7,3-3.1,5.2-4.1c2.3-1,4.9-1.5,8-1.5
		c4.5,0,8.2,1.1,10.9,3.4c2.7,2.3,4.2,5.3,4.5,9.2h-9.2c-0.1-1.5-0.8-2.7-1.9-3.6c-1.1-0.9-2.6-1.3-4.5-1.3c-1.7,0-3.1,0.3-4,1
		c-0.9,0.6-1.4,1.5-1.4,2.7c0,1.3,0.6,2.3,1.9,2.9c1.3,0.7,3.3,1.3,6,2s5,1.4,6.8,2.1c1.8,0.7,3.3,1.9,4.6,3.4c1.3,1.5,2,3.6,2,6.1
		c0,2.2-0.6,4.2-1.8,5.9c-1.2,1.7-3,3.1-5.2,4.1c-2.3,1-4.9,1.5-7.9,1.5C386.5,64.7,383.7,64.2,381.2,63.1z"/>
	<path class="st2" d="M435,64.1l-12.9-16.2v16.2h-9.6V13.3h9.6v28.9l12.8-16.1h12.5l-16.8,19.1l16.9,19L435,64.1L435,64.1z"/>
	<path class="st2" d="M453.2,19.9c-1.1-1.1-1.7-2.4-1.7-4s0.6-2.9,1.7-4s2.5-1.6,4.2-1.6s3.1,0.5,4.2,1.6s1.7,2.4,1.7,4
		s-0.6,2.9-1.7,4s-2.5,1.6-4.2,1.6C455.8,21.5,454.4,21,453.2,19.9z M462.2,26.1v38.1h-9.6V26.1H462.2z"/>
</g>
<g class="st1">
	<path class="st3" d="M12.2,58V24.4H30l0.4,12.4h1c0-3.4,0.5-6.1,1.4-8.1c0.9-1.9,2.2-3.3,3.9-4c1.7-0.8,3.7-1.1,5.9-1.1
		c3.6,0,6.3,1.1,8,3.2s2.6,5.5,2.6,10.1h1c0-3.4,0.5-6.1,1.4-8.1c0.9-1.9,2.2-3.3,3.9-4c1.7-0.8,3.7-1.1,5.9-1.1c3.6,0,6.3,1,8,3
		s2.6,5.1,2.6,9.2V58H57.9V42.4c0-1.4-0.2-2.4-0.6-2.9c-0.4-0.5-1-0.7-1.7-0.7c-0.9,0-1.5,0.3-1.8,0.9c-0.3,0.6-0.5,1.5-0.5,2.7V58
		H35V42.4c0-1.4-0.2-2.4-0.6-2.9c-0.4-0.5-1-0.7-1.7-0.7c-0.9,0-1.5,0.3-1.8,0.9c-0.3,0.6-0.5,1.5-0.5,2.7V58H12.2z"/>
	<path class="st3" d="M97.8,58.8c-3.9,0-7.3-0.7-10.3-2.1c-3-1.4-5.3-3.4-7-6S78,44.9,78,41.1s0.8-6.9,2.5-9.5s4.1-4.6,7.1-5.9
		c3.1-1.3,6.6-2,10.7-2c2.8,0,5.4,0.3,7.8,1s4.2,1.5,5.6,2.4v12.3l-0.7,0.4c-1.2-0.8-2.6-1.4-4.2-1.7c-1.6-0.4-3.2-0.5-4.7-0.5
		c-2.3,0-4,0.3-5.2,1s-1.7,1.6-1.7,2.7c0,1.3,0.6,2.2,1.9,2.9c1.2,0.6,2.9,1,5,1c1.7,0,3.3-0.2,4.8-0.6c1.5-0.4,2.8-0.9,4-1.6
		l0.8,0.4v12.1c-1.4,1-3.4,1.9-6,2.6C103.1,58.5,100.5,58.8,97.8,58.8z"/>
	<path class="st3" d="M148.6,58L114,57.9v-13c2.1-1.4,4.3-2.7,6.4-3.9s3.9-2.1,5.3-2.7l-0.2-0.5c-1.9,0.2-3.6,0.3-4.9,0.4
		c-1.3,0.1-2.5,0.1-3.5,0.1s-2.1,0-3.1,0v-14l34.6,0.1v13.1c-1.8,1.2-3.8,2.3-5.9,3.5c-2.1,1.2-4,2.2-5.7,2.9l0.1,0.5
		c1.9-0.2,3.6-0.3,4.9-0.4c1.3-0.1,2.5-0.1,3.6-0.1c1,0,2.1,0,3.1,0V58H148.6z"/>
	<path class="st3" d="M160.8,58.8c-3.1,0-5.6-0.9-7.5-2.6c-1.9-1.7-2.8-3.9-2.8-6.7c0-2.9,0.9-5.1,2.8-6.8c1.9-1.7,4.4-2.5,7.6-2.5
		c3.2,0,5.6,0.7,7.4,2.2c1.7,1.4,2.9,3.4,3.4,5.9h0.8v-3.6c0-2-0.7-3.5-2.2-4.7c-1.5-1.1-3.9-1.7-7.3-1.7c-2.1,0-4.1,0.3-6.1,0.8
		c-2,0.6-3.7,1.2-5.1,2.1l-0.8-0.4v-14c1.5-0.6,3.2-1.1,5.1-1.6c1.9-0.5,4-0.8,6.1-1.1c2.1-0.3,4.1-0.4,6.1-0.4
		c7.3,0,12.9,1.3,16.7,3.9s5.7,6.8,5.7,12.7v17.8h-17.8l-0.4-7.3h-0.7c-0.5,2.7-1.8,4.8-3.7,6.1C166,58.1,163.6,58.8,160.8,58.8z
		 M168,51.4c1.4,0,2.1-0.6,2.1-1.9c0-0.6-0.2-1-0.5-1.4c-0.4-0.4-0.9-0.6-1.6-0.6c-0.6,0-1.2,0.2-1.5,0.5c-0.4,0.3-0.6,0.8-0.6,1.5
		c0,0.6,0.2,1,0.6,1.4C166.8,51.2,167.3,51.4,168,51.4z"/>
	<path class="st3" d="M192.9,58V24.4H210l1.1,12.7h1.2c0.1-3.8,0.6-6.7,1.4-8.7c0.8-2,2-3.3,3.5-4c1.6-0.7,3.6-0.9,6-0.6v17.7
		l-0.9,0.5c-0.6-0.3-1.3-0.5-2.1-0.6s-1.5-0.2-2.1-0.2c-2.1,0-3.8,0.6-5.1,1.7c-1.3,1.2-2,3-2,5.5V58H192.9z"/>
	<path class="st3" d="M225.4,58V17h18.3v19.6h1.1l3-12.2h19.6v2L259.7,38l7.7,18.5V58h-20l-2.7-11.4h-1V58H225.4z"/>
	<path class="st3" d="M284.4,58.8c-4,0-7.5-0.7-10.6-2s-5.5-3.3-7.2-5.9c-1.7-2.6-2.6-5.8-2.6-9.6c0-3.4,0.8-6.5,2.3-9.1
		c1.5-2.6,3.8-4.7,6.9-6.2c3-1.5,6.8-2.2,11.2-2.2c4,0,7.5,0.7,10.6,2s5.5,3.3,7.2,5.9s2.6,5.8,2.6,9.6c0,3.4-0.8,6.5-2.3,9.2
		s-3.8,4.7-6.9,6.2C292.5,58,288.8,58.8,284.4,58.8z M284.4,44.2c0.9,0,1.7-0.3,2.2-0.8c0.6-0.5,0.9-1.3,0.9-2.2s-0.3-1.6-0.9-2.2
		c-0.6-0.6-1.3-0.8-2.2-0.8c-1,0-1.8,0.3-2.3,0.8c-0.5,0.6-0.8,1.3-0.8,2.2s0.3,1.6,0.8,2.1C282.6,43.9,283.4,44.2,284.4,44.2z"/>
	<path class="st3" d="M309.2,58l-5.3-31.9v-1.7h16.9l0.7,8.6c0.2,2.7,0.3,5,0.4,6.8s0.1,3.2,0.1,4.4h1.2c0-0.8,0.1-2,0.3-3.4
		c0.2-1.4,0.4-3.1,0.7-4.9c0.3-1.8,0.5-3.6,0.9-5.5l1.1-5.9h15.7l1.1,5.9c0.3,1.8,0.6,3.6,0.8,5.4c0.2,1.8,0.4,3.4,0.6,4.9
		c0.2,1.4,0.3,2.6,0.3,3.5h1.3c0-1.2,0-2.7,0.1-4.5s0.2-4,0.3-6.6l0.8-8.6h16.9v1.7L358.8,58H336l-1-8.7c-0.1-1.7-0.2-3-0.2-4.1
		s-0.1-1.9-0.2-2.5h-1.3c0,0.6-0.1,1.4-0.1,2.5s-0.1,2.4-0.2,4.1l-1,8.7H309.2z"/>
	<path class="st3" d="M379.9,58.8c-3.4,0-6.4-0.3-9.1-0.9c-2.7-0.6-4.8-1.4-6.3-2.3V43.4l0.9-0.5c1.8,0.9,3.8,1.4,5.8,1.7
		s4,0.4,6,0.4c0.7,0,1.3,0,2-0.1s1.1-0.1,1.4-0.3v-1.8c-0.2,0-0.5,0.1-1,0.1c-0.4,0-0.9,0-1.5,0c-4.6,0-8.1-0.7-10.6-2
		s-3.7-3.5-3.7-6.4c0-2.5,0.8-4.6,2.4-6.2s3.8-2.8,6.5-3.6c2.8-0.8,5.9-1.2,9.4-1.2c1.9,0,3.8,0.1,5.9,0.3c2.1,0.2,4.1,0.5,5.9,0.9
		c1.9,0.4,3.4,0.9,4.5,1.5v13.3l-0.7,0.4c-0.9-0.6-2.1-1-3.4-1.3c-1.4-0.3-2.8-0.6-4.2-0.8c-1.4-0.2-2.6-0.3-3.5-0.3
		c-1.1,0-2,0-2.6,0.1s-1.1,0.1-1.5,0.3v1.8c0.7-0.1,1.2-0.1,1.5-0.1c0.4,0,0.8,0,1.2,0c4.6,0.1,8.1,0.8,10.4,2.2
		c2.4,1.4,3.5,3.6,3.5,6.7c0,3.6-1.7,6.2-5.1,7.9C390.6,58,385.9,58.8,379.9,58.8z"/>
	<path class="st3" d="M400.6,58V17h18.3v19.6h1.1l3-12.2h19.6v2L434.8,38l7.7,18.5V58h-20l-2.7-11.4h-1V58H400.6z"/>
	<path class="st3" d="M452.8,25.5c-2.8,0-5-0.4-6.8-1.2c-1.8-0.8-2.6-2-2.6-3.4s0.8-2.5,2.5-3.4c1.6-0.9,4-1.3,7-1.3
		c2.8,0,5.1,0.4,6.8,1.2c1.7,0.8,2.6,1.9,2.6,3.4c0,1.4-0.8,2.5-2.4,3.4C458.1,25.1,455.8,25.5,452.8,25.5z M443.6,58V24.8
		c1.9,1.7,4.9,2.5,9.2,2.5c2.1,0,3.9-0.2,5.5-0.7s2.8-1.1,3.6-1.8V58H443.6z"/>
</g>
<path class="st4" d="M341.3,13.8c-2.9,0-5,2.1-5,5c0,2.9,2.1,5.1,5,5.1c2.9,0,5-2.2,5-5.1C346.3,16,344.2,13.8,341.3,13.8z
	 M291.8,41.6l-1.8-0.9c-4.1-2.1-5.2-3.8-5.2-6c0-2.9,1.9-4.6,5.1-4.6c3.5,0,7.2,4.1,8,9.8h0.7l-0.9-9.8c-4.7,0-4.9-0.8-7.9-0.8
	c0,0,0,0,0,0c-0.1,0-0.3,0-0.4,0c-6.8,0-11.1,3.4-11.1,8.9c0,3.9,2.1,7.4,6.6,9.9l1.8,1c5.8,3.2,7.7,4.6,7.7,7.4
	c0,2.9-2.2,4.7-6.3,4.7c-4.2,0-8.2-3.8-9.5-11.5h-0.8l1.5,11.4c6,0,5.1,0.8,8.8,0.9c0,0,0,0,0,0c0.1,0,0.3,0,0.4,0
	c7.6-0.1,11.4-3.3,11.4-9.6C300,47.3,297.5,44.5,291.8,41.6z M271.9,30.1v0.6c2,0.2,3.1,1.6,3.1,3.7c0,0.8-0.1,1.7-0.6,2.7
	l-5.6,14.3l-5.6-14.7c-1.3-3.3-0.5-5.7,2.1-6v-0.6h-15.3v0.6c2.1,0.1,3.2,1.4,4,3.3l2.5,6.4l-4.7,11l-6.3-14.7
	c-1.5-3.3-0.5-5.7,2.4-6v-0.6h-17.1v0.6c2.4,0.1,3.6,1.3,4.4,3.3l12.1,28h0.6l4.5-10.3l4.5-10.3l8,20.6h0.5l4.1-10.3l6-15.1
	c1.3-3.4,3.2-5.4,5.1-5.8v-0.6H271.9z M217.8,29.2h-0.2c0,0,0,0,0,0c-10,0-16.6,6.3-16.6,16.3c0,10,6.6,16.3,16.6,16.3h0.1
	c9.9,0,16.6-6.3,16.6-16.3C234.2,35.6,227.6,29.3,217.8,29.2z M217.6,61.1c-3.8,0-6.8-6.3-6.8-15.6c0-8.4,2.7-15.5,6.9-15.5
	c0.1,0,0.1,0,0.2,0c3.8,0.2,6.6,6.6,6.6,15.5C224.4,53.9,221.8,61.1,217.6,61.1z M201.1,57.6L189,39l4.2-3.5
	c3.9-3.2,5.5-4.3,7.5-4.6l0.6-0.1v-0.6h-9.1v0.6l0.8,0.2c0.8,0.2,1,0.7,0.8,1.8c-0.3,1-1.3,2.3-3,3.7l-2.4,2l-6.3,5.3l-1.7,1.4V13
	h-0.6c-0.4,0.7-1.2,1.2-2.1,1.6c-1,0.4-2.6,0.7-4.7,0.7h-6.2V16c2.9,0,4.9,1.9,4.9,4.9v34.7c0,2.9-1.9,4.9-4.9,4.9h-0.1V61h18.6
	v-0.6h-0.1c-2.9,0-4.9-1.9-4.9-4.9v-9.3l2.3-1.9l6.9,11.1c0.7,1.1,1.1,1.9,1.4,2.6c0.3,0.6,0.4,1.1,0.4,1.4c0,0.4-0.2,0.7-0.6,0.8
	c-0.4,0.2-1,0.2-2,0.2V61H205v-0.6C203.6,60.4,202.6,59.6,201.1,57.6z M156.9,38c0.9-1.8,2-3,4.2-3c1.6,0,3.7,0.6,6.6,2.2l2.4-7.1
	c-1.5-0.7-2.9-0.9-4.1-0.9c-5.4,0-8.3,4.9-9.8,8.6l-0.1-10h-0.3c-0.9,1.4-2.9,2.3-7.2,2.3h-6v0.6c4,0,4.9,1.8,4.9,4.9v20
	c0,2.9-1.9,4.9-4.9,4.9h-0.1V61h18.6v-0.6h-0.1c-2.9,0-4.9-1.9-4.9-4.9V39.3C156.5,38.8,156.7,38.4,156.9,38z M144.8,56.6
	c-0.9,1-1.8,1.5-2.7,1.5c-1.5,0-2.4-1.3-2.4-3.5V39.9c0-6.6-4.8-10.8-11.7-10.8c-0.5,0-1.1,0-1.6,0.1c-5.5,0.5-10.4,3.7-12.3,8.3
	l6.6,3.8c0.7-6.8,2.8-11,5.8-11.3c0.1,0,0.2,0,0.3,0c2.6,0,4.1,2.9,4.1,7.5v4.6l-0.3,0.1l-5.4,2c-5.4,1.9-8.5,3.7-10.3,5.3
	c-1.8,1.6-2.3,3.2-2.3,5.1c0,4.4,3.3,7.3,8.2,7.3c3.3,0,5.8-1.5,9.4-5c0.2-0.2,0.5-0.5,0.7-0.7c0.5,3.5,3,5.8,6.1,5.8
	c2.9,0,6.1-1.9,8.2-4.8L144.8,56.6z M130.9,55.2c-0.3,0.2-0.5,0.5-0.8,0.7c-0.2,0.2-0.4,0.4-0.6,0.5c-1.4,1.1-2.7,1.6-4,1.6
	c-2.7,0-4.6-2.5-4.6-6c0-3.8,1.5-6,7.7-8.3l2.4-0.9L130.9,55.2z M111.3,49.9c-1.2,7.3-4.1,10.3-9,10.3h-6.5l15-29.5v-0.6H89.4
	l-1.3,9.8h0.7c1-6.3,3.9-9.1,8.5-9.1h4.3L86.8,60.4V61h23.7l1.5-11.1H111.3z M86.4,50.7c-2.3,3.3-6,5.4-9.9,5.4
	c-6.3,0-10.3-5.7-10.3-14.2c0-6.2,2.2-11.3,5.8-11.8c0.1,0,0.1,0,0.2,0c0.1,0,0.1,0,0.2,0c0.1,0,0.1,0,0.2,0c1.9,0,3.4,1.2,4.4,3.6
	c1,2.4,1.6,5.7,1.6,9.9l7.3-4.1c-0.9-6.3-5.7-10.3-12.5-10.3c-0.3,0-0.7,0-1,0c-0.1,0-0.1,0-0.2,0c-0.1,0-0.1,0-0.2,0
	c-8.1,0.7-14,7.3-14,16.5c0,9.4,5.8,16.1,14.2,16.1c6.8,0,12.9-4.4,15-11L86.4,50.7z M61,60.4c-2.9,0-4.9-1.9-4.9-4.9V39
	c0-5.8-3.6-9.7-9-9.7c-4.9,0-9.6,2.8-11.8,7.2c-0.9-4.4-4.1-7.2-8.8-7.2c-4.8,0-9.6,2.9-11.6,7.1l-0.1-7.9h-0.6
	c-0.7,0.9-1.9,1.7-6.9,1.7h-6v0.6c4,0,4.9,1.8,4.9,4.9v20c0,2.9-1.9,4.9-4.9,4.9H1.3V61h18.6v-0.6h-0.1c-2.9,0-4.9-1.9-4.9-4.9V37.6
	c0.2-0.3,0.4-0.7,0.6-1c2-3.1,4.6-5,6.9-5c2.6,0,4.3,2.6,4.3,6.7v17.2c0,2.9-1.9,4.9-4.9,4.9h-0.1V61h18.6v-0.6h-0.1
	c-2.9,0-4.9-1.9-4.9-4.9V38.3c0-0.2,0-0.4-0.1-0.6c0.2-0.3,0.4-0.7,0.6-1c2-3,4.7-5,7-5c2.6,0,4.4,2.6,4.4,6.7v17.2
	c0,2.9-1.9,4.9-4.9,4.9h-0.1V61H61L61,60.4L61,60.4z M350.6,60.4c-2.9,0-4.9-1.9-4.9-4.9V27.8h-0.6c-0.4,0.7-1.2,1.2-2.1,1.6
	c-1,0.4-2.6,0.7-4.7,0.7h-14.7v0.6l0.8,0.2c0.8,0.2,1,0.7,0.8,1.8c-0.3,1-1.3,2.3-3,3.7l-2.4,2l-6.3,5.3l-1.7,1.4V13h-0.6
	c-0.4,0.7-1.2,1.2-2.1,1.6c-1,0.4-2.6,0.7-4.7,0.7h-6.2V16c2.9,0,4.9,1.9,4.9,4.9v34.7c0,2.9-1.9,4.9-4.9,4.9h-0.1V61h18.6v-0.6
	h-0.1c-2.9,0-4.9-1.9-4.9-4.9v-9.3l2.2-1.9l6.9,11.1c0.7,1.1,1.1,1.9,1.4,2.6c0.3,0.6,0.4,1.1,0.4,1.4c0,0.4-0.2,0.7-0.5,0.8
	c-0.4,0.2-1,0.2-2,0.2V61h30.4L350.6,60.4L350.6,60.4z M337,55.5c0,2-0.9,3.5-2.4,4.3c-0.6-0.4-1.3-1.2-2.1-2.2L320.4,39l4.2-3.5
	c3.9-3.2,5.5-4.3,7.5-4.6l0.5-0.1c3.5,0.2,4.4,2,4.4,4.9V55.5z"/>
</svg>
