<?xml version="1.0" encoding="UTF-8"?>
<svg id="Layer_1" xmlns="http://www.w3.org/2000/svg" version="1.1" viewBox="0 0 1080 1080">
  <!-- Generator: Adobe Illustrator 30.1.0, SVG Export Plug-In . SVG Version: 2.1.1 Build 136)  -->
  <defs>
    <style>
      .st0 {
        fill: #3251ff;
      }
    </style>
  </defs>
  <path class="st0" d="M204.3,716.7h0c33.7,0,55.3-21.7,55.3-55.3v-226.2c0-33.7-9.6-55.3-55.3-55.3v-7.2h67.4c55.3,0,69.8-9.6,77-19.2h7.2v89c24.1-48.1,77-79.4,132.3-79.4s89,31.3,98.6,81.8c26.5-50.5,77-81.8,132.3-81.8s101.1,43.3,101.1,110.7v187.7c0,33.7,21.7,55.3,55.3,55.3h0v7.2h-209.3v-7.2h0c33.7,0,55.3-21.7,55.3-55.3v-192.5c0-45.7-19.2-74.6-50.5-74.6-24.1-2.4-57.7,24.1-81.8,65v202.1c0,33.7,21.7,55.3,55.3,55.3h0v7.2h-209.3v-7.2h0c33.7,0,55.3-21.7,55.3-55.3v-192.5c0-45.7-19.2-74.6-48.1-74.6s-62.6,26.5-84.2,67.4v202.1c0,33.7,21.7,55.3,55.3,55.3h0v7.2h-209.3v-9.6Z"/>
</svg>