<?xml version="1.0" encoding="UTF-8"?>
<svg id="Warstwa_1" data-name="Warstwa 1" xmlns="http://www.w3.org/2000/svg" viewBox="0 0 28 28">
  <path d="M0,21.4h0c1.4,0,2.3-.9,2.3-2.3v-9.4c0-1.4-.4-2.3-2.3-2.3v-.3h2.8c2.3,0,2.9-.4,3.2-.8h.3v3.7c1-2,3.2-3.3,5.5-3.3s3.7,1.3,4.1,3.4c1.1-2.1,3.2-3.4,5.5-3.4,2.5,0,4.2,1.8,4.2,4.6v7.8c0,1.4.9,2.3,2.3,2.3h0v.3h-8.7v-.3h0c1.4,0,2.3-.9,2.3-2.3v-8c0-1.9-.8-3.1-2.1-3.1-1-.1-2.4,1-3.4,2.7v8.4c0,1.4.9,2.3,2.3,2.3h0v.3h-8.7v-.3h0c1.4,0,2.3-.9,2.3-2.3v-8c0-1.9-.8-3.1-2-3.1s-2.6,1.1-3.5,2.8v8.4c0,1.4.9,2.3,2.3,2.3h0v.3H0v-.4Z"/>
</svg>