<?xml version="1.0" encoding="UTF-8"?>
<svg id="Warstwa_1" data-name="Warstwa 1" xmlns="http://www.w3.org/2000/svg" viewBox="0 0 394 275">
  <defs>
    <style>
      .cls-1 {
        fill: #3251ff;
      }
    </style>
  </defs>
  <path class="cls-1" d="M63.6,207.2h0c13.3,0,21.9-8.6,21.9-21.9v-89.6c0-13.3-3.8-21.9-21.9-21.9v-2.9h26.7c21.9,0,27.7-3.8,30.5-7.6h2.9v35.3c9.5-19.1,30.5-31.5,52.4-31.5s35.3,12.4,39.1,32.4c10.5-20,30.5-32.4,52.4-32.4s40,17.2,40,43.9v74.4c0,13.3,8.6,21.9,21.9,21.9h0v2.9h-83v-2.9h0c13.3,0,21.9-8.6,21.9-21.9v-76.3c0-18.1-7.6-29.6-20-29.6-9.5-1-22.9,9.5-32.4,25.7v80.1c0,13.3,8.6,21.9,21.9,21.9h0v2.9h-83v-2.9h0c13.3,0,21.9-8.6,21.9-21.9v-76.3c0-18.1-7.6-29.6-19.1-29.6s-24.8,10.5-33.4,26.7v80.1c0,13.3,8.6,21.9,21.9,21.9h0v2.9H63.6v-3.8Z"/>
</svg>