<?xml version="1.0" encoding="utf-8"?>
<!-- Generator: Adobe Illustrator 24.3.0, SVG Export Plug-In . SVG Version: 6.00 Build 0)  -->
<svg version="1.2" baseProfile="tiny" id="Layer_1" xmlns="http://www.w3.org/2000/svg" xmlns:xlink="http://www.w3.org/1999/xlink"
	 x="0px" y="0px" viewBox="0 0 394 275" overflow="visible" xml:space="preserve">
<path fill="#3251FF" d="M68.8,205.9V71.5h71.4l1.7,49.7h4c0.2-13.8,2.1-24.5,5.7-32.2c3.6-7.7,8.8-13,15.6-16.1
	c6.7-3,14.6-4.5,23.7-4.5c14.6,0,25.3,4.2,32.1,12.6c6.8,8.4,10.2,21.8,10.2,40.2h4c0.2-13.8,2.1-24.5,5.7-32.2
	c3.6-7.7,8.8-13,15.6-16.1c6.7-3,14.6-4.5,23.7-4.5c14.6,0,25.3,4,32.1,12.1c6.8,8.1,10.2,20.4,10.2,36.9v88.5h-73v-62.6
	c0-5.7-0.8-9.5-2.5-11.4c-1.7-1.9-3.9-2.9-6.8-2.9c-3.5,0-5.9,1.2-7.1,3.6c-1.3,2.4-1.9,5.9-1.9,10.7v62.6h-73v-62.6
	c0-5.7-0.8-9.5-2.5-11.4c-1.7-1.9-3.9-2.9-6.8-2.9c-3.5,0-5.9,1.2-7.1,3.6c-1.3,2.4-1.9,5.9-1.9,10.7v62.6H68.8z"/>
</svg>
